<svg width="16px" height="10px" viewBox="0 0 16 10" version="1.1" xmlns="http://www.w3.org/2000/svg" xmlns:xlink="http://www.w3.org/1999/xlink">
    <!-- Generator: Sketch 51.3 (57544) - http://www.bohemiancoding.com/sketch -->
    <desc>Created with Sketch.</desc>
    <defs></defs>
    <g id="Page-1" stroke="none" stroke-width="1" fill="none" fill-rule="evenodd">
        <g id="eye" transform="translate(0.000000, -3.000000)" fill="#000000" fill-rule="nonzero">
            <g id="Group">
                <rect id="Rectangle-path" opacity="0" x="0" y="0" width="16" height="16"></rect>
                <path d="M8,3.75 C2.79225,3.75 0.19225,7.5605 0.084,7.72275 C-0.028,7.89075 -0.028,8.1095 0.084,8.2775 C0.19225,8.4395 2.79225,12.25 8,12.25 C13.20775,12.25 15.80775,8.4395 15.916,8.27725 C16.028,8.10925 16.028,7.8905 15.916,7.7225 C15.80775,7.5605 13.20775,3.75 8,3.75 Z M8,11.25 C4.12325,11.25 1.8085,8.8305 1.128,7.999 C1.80625,7.16575 4.109,4.75 8,4.75 C11.87675,4.75 14.1915,7.1695 14.872,8.001 C14.19375,8.83425 11.891,11.25 8,11.25 Z M8,5.75 C6.75925,5.75 5.75,6.7595 5.75,8 C5.75,9.2405 6.75925,10.25 8,10.25 C9.24075,10.25 10.25,9.2405 10.25,8 C10.25,6.7595 9.24075,5.75 8,5.75 Z M8,9.25 C7.31075,9.25 6.75,8.68925 6.75,8 C6.75,7.31075 7.31075,6.75 8,6.75 C8.68925,6.75 9.25,7.31075 9.25,8 C9.25,8.68925 8.68925,9.25 8,9.25 Z" id="Shape"></path>
            </g>
        </g>
    </g>
</svg>